<svg xmlns="http://www.w3.org/2000/svg" version="1.1" xmlns:xlink="http://www.w3.org/1999/xlink" xmlns:svgjs="http://svgjs.com/svgjs" width="1920" height="1080" preserveAspectRatio="none" viewBox="0 0 1920 1080"><g mask="url(&quot;#SvgjsMask1011&quot;)" fill="none"><path d="M270 226.22C248.51 247.4 228.46 249.01 228.46 270C228.46 289.31 243.76 299.76 270 306.82C399.53 341.66 408.03 318.8 540 353.79C678.03 390.39 682.1 388.75 810 450C876.5 481.85 865.68 500.93 928.8 540C1000.68 584.5 1010.89 617.14 1080 617.14C1123.55 617.14 1154.12 584.06 1154.12 540C1154.12 472.8 1123.19 463.45 1080 394.62C1038.48 328.45 1044.53 317.86 984.71 270C909.53 209.86 892.49 232.09 810 178.62C684.2 97.09 568.13 49.5 568.13 0C568.13 -39.81 689.07 0 810 0C945 0 945 0 1080 0C1215 0 1215 0 1350 0C1440 0 1452.16 -27.91 1530 0C1587.16 20.49 1566.05 96.79 1620 96.79C1709.71 96.79 1715.86 36.37 1817.31 0C1850.86 -12.03 1853.65 0 1890 0C2025 0 2092.5 -67.5 2160 0C2227.5 67.5 2160 135 2160 270C2160 405 2160 405 2160 540C2160 675 2160 675 2160 810C2160 901.17 2181.75 908.82 2160 992.34C2146.6 1043.82 2138.3 1064.22 2089.69 1080C2003.3 1108.05 1989.85 1080 1890 1080C1755 1080 1755 1080 1620 1080C1485 1080 1485 1080 1350 1080C1282.5 1080 1281.48 1088.31 1215 1080C1146.48 1071.43 1141.21 1046.25 1080 1046.25C1061.87 1046.25 1075.68 1077.58 1056.32 1080C940.68 1094.46 933.16 1080 810 1080C675 1080 675 1080 540 1080C428.05 1080 358.03 1140.87 316.1 1080C265.03 1005.87 370.38 931.74 354 810C347.33 760.4 306.06 737.31 270 737.31C242.59 737.31 253.91 777.61 227.05 810C118.91 940.41 65.09 1062.91 0 1062.91C-48.44 1062.91 0 936.45 0 810C0 675 0 675 0 540C0 405 0 405 0 270C0 135 -67.5 67.5 0 0C67.5 -67.5 135 0 270 0C386.25 0 502.5 -47.22 502.5 0C502.5 65.89 385.53 112.4 270 226.22" stroke="rgba(123, 44, 191, 1)" stroke-width="2"></path><path d="M1620 702C1547.35 706.3 1495.38 764.76 1495.38 810C1495.38 847.69 1553.8 863.79 1620 867.86C1751.11 875.91 1758.41 859.44 1890 834.23C1909.42 830.51 1922.03 821.97 1922.03 810C1922.03 798.19 1908.55 793.3 1890 786.67C1757.54 739.3 1744.66 694.63 1620 702" stroke="rgba(224, 180, 255, 1)" stroke-width="2"></path><path d="M0 195.52C15.36 195.52 55.38 229.88 55.38 270C55.38 327.12 14.51 390 0 390C-13.18 390 0 330 0 270C0 232.76 -12.33 195.52 0 195.52" stroke="rgba(224, 180, 255, 1)" stroke-width="2"></path><path d="M270 43.78C241.55 43.78 210 12.11 210 0C210 -9.78 240 0 270 0C292.5 0 315 -9.14 315 0C315 12.75 294.05 43.78 270 43.78" stroke="rgba(60, 9, 108, 1)" stroke-width="2"></path><path d="M810 74.77C754.01 46.96 708.75 20.72 708.75 0C708.75 -16.67 759.38 0 810 0C945 0 945 0 1080 0C1215 0 1215 0 1350 0C1380.79 0 1388.97 -18.77 1411.58 0C1523.97 93.3 1498.16 197.24 1620 224.15C1737.37 250.07 1766.52 181.03 1890 105.65C1950.12 68.95 1925.94 23.97 1987.2 0C2060.94 -28.85 2126.28 -52.68 2160 0C2212.68 82.32 2160 135 2160 270C2160 405 2160 405 2160 540C2160 675 2160 675 2160 810C2160 857.34 2183.37 904.68 2160 904.68C2121.59 904.68 2098.83 856.53 2036.44 810C1963.83 755.85 1964.01 755.55 1890 703.33C1772.67 620.55 1748.3 638.57 1653.75 540C1613.3 497.84 1649.51 421.87 1620 421.87C1582.9 421.87 1576.03 486.76 1520.53 540C1441.03 616.26 1418.9 680.87 1350 680.87C1301.87 680.87 1320.25 609.47 1286.47 540C1220.35 404.04 1225.77 400.16 1150.2 270C1122.54 222.35 1126.83 211.27 1080 184.39C956.73 113.65 939.63 139.16 810 74.77" stroke="rgba(123, 44, 191, 1)" stroke-width="2"></path><path d="M117.39 540C195.35 503.75 187.75 473.82 270 460.23C399.05 438.91 410.19 444.89 540 470.17C615.02 484.78 622.05 490.03 679.66 540C757.05 607.12 723.33 657.83 810 704.35C923.5 765.28 947.96 719.9 1080 754.9C1147.24 772.72 1208.57 779.92 1208.57 810C1208.57 841.22 1130.06 827.57 1080 877.5C994.72 962.57 1026.88 1013.25 937.89 1080C891.88 1114.5 873.94 1080 810 1080C675 1080 675 1080 540 1080C510.37 1080 483.96 1104.23 480.73 1080C465.96 969.23 553.19 920.3 504 810C447.83 684.05 370.47 607.5 270 607.5C193.64 607.5 219.33 715.47 150.34 810C84.33 900.45 43.1 977.47 0 977.47C-32.07 977.47 0 893.74 0 810C0 697.88 -37.58 672.19 0 585.76C21.12 537.19 60.35 566.52 117.39 540" stroke="rgba(224, 180, 255, 1)" stroke-width="2"></path><path d="M1488.46 1080C1488.46 1054.84 1546.63 1017.48 1620 988.39C1747.4 937.87 1775.04 894.4 1890 920.77C1974.73 940.21 2019.38 1031.17 2019.38 1080C2019.38 1110.79 1954.69 1080 1890 1080C1755 1080 1755 1080 1620 1080C1554.23 1080 1488.46 1100.65 1488.46 1080" stroke="rgba(123, 44, 191, 1)" stroke-width="2"></path><path d="M1080 19.76C1040.05 19.76 999 5.01 999 0C999 -4.87 1039.5 0 1080 0C1107 0 1134 -4.78 1134 0C1134 5.1 1107.55 19.76 1080 19.76" stroke="rgba(224, 180, 255, 1)" stroke-width="2"></path><path d="M1285.2 270C1285.2 202.76 1308.74 135 1350 135C1398.99 135 1465.71 203.09 1465.71 270C1465.71 335.39 1399.21 399.6 1350 399.6C1308.96 399.6 1285.2 335.06 1285.2 270" stroke="rgba(224, 180, 255, 1)" stroke-width="2"></path><path d="M1847.37 270C1855.56 249.64 1868.35 252.39 1890 252.39C1916.66 252.39 1923.46 251.06 1944 270C2058.46 375.58 2063.73 381.09 2160 501.43C2171.73 516.09 2160 520.72 2160 540C2160 675 2160 675 2160 810C2160 813.51 2161.73 817.01 2160 817.01C2157.16 817.01 2155.51 813.4 2150.85 810C2020.51 714.89 2021.12 714.02 1890 620C1832.84 579.02 1781.42 598.56 1774.29 540C1760.11 423.56 1797.7 393.45 1847.37 270" stroke="rgba(60, 9, 108, 1)" stroke-width="2"></path><path d="M2160 99.47C2150.23 99.47 2122.2 36.7 2122.2 0C2122.2 -13.04 2154.8 -13.7 2160 0C2173.7 36.04 2169.13 99.47 2160 99.47" stroke="rgba(224, 180, 255, 1)" stroke-width="2"></path><path d="M0 700.17C20.11 700.17 73.64 757.68 73.64 810C73.64 853.61 21.11 892.03 0 892.03C-15.71 892.03 0 851.01 0 810C0 755.09 -16.71 700.17 0 700.17" stroke="rgba(224, 180, 255, 1)" stroke-width="2"></path><path d="M780 1080C780 1071.21 798.67 1050 810 1050C818.4 1050 819.47 1068.47 819.47 1080C819.47 1083.47 814.74 1080 810 1080C795 1080 780 1086.21 780 1080" stroke="rgba(224, 180, 255, 1)" stroke-width="2"></path><path d="M1680 1080C1680 1061.31 1795.36 1007.31 1890 1007.31C1929.89 1007.31 1949.06 1057.71 1949.06 1080C1949.06 1094.06 1919.53 1080 1890 1080C1785 1080 1680 1097.66 1680 1080" stroke="rgba(123, 44, 191, 1)" stroke-width="2"></path></g><defs><mask id="SvgjsMask1011"><rect width="1920" height="1080" fill="#ffffff"></rect></mask></defs></svg>